<?xml version="1.0" encoding="UTF-8"?>
<svg width="345.57" height="345.57" version="1.1" viewBox="0 0 91.432235 91.432252" xmlns="http://www.w3.org/2000/svg" xmlns:cc="http://creativecommons.org/ns#" xmlns:dc="http://purl.org/dc/elements/1.1/" xmlns:rdf="http://www.w3.org/1999/02/22-rdf-syntax-ns#" xmlns:xlink="http://www.w3.org/1999/xlink">
<metadata>
<rdf:RDF>
<cc:Work rdf:about="">
<dc:format>image/svg+xml</dc:format>
<dc:type rdf:resource="http://purl.org/dc/dcmitype/StillImage"/>
<dc:title/>
</cc:Work>
</rdf:RDF>
</metadata>
<g transform="translate(-56.006 -98.206)">
<g>
<circle cx="101.72" cy="143.92" r="39.102" fill="#0f305d"/>
<path d="m88.676 147.8s0.75647 2.3853-4.4976 4.8247c-2.2897 1.0631-2.2891 0.56321-8.5045 1.3084-2.4708 0.29624 14.154 11.802 16.82 12.061 4.561 0.44384 8.1977 1.3452 11.69-1.77 2.5234-2.2507 5.0173-7.1835 4.9355-9.8003" fill="#e1e1e1" stroke="#000" stroke-width=".0046259px"/>
<path d="m103.95 152.75-4.3341 7.1129c-0.25768 0.59835-4.4744 5.4852-7.9332 5.8977 0.33875 0.13429 0.61398 0.21569 0.81213 0.23498 4.561 0.44382 8.1977 1.3452 11.69-1.77 2.5234-2.2507 5.0173-7.1835 4.9355-9.8003z" fill="#bfbfbf" stroke="#000" stroke-width=".0046259px"/>
<path d="m98.225 146.26 20.476-27.282s2.6244-1.2468 4.8159-0.62694c2.1915 0.61989-0.23644 4.2813-0.23644 4.2813l-20.961 24.908 7.0262 2.7533s2.8548 1.2688 1.1631 2.6434c-1.6918 1.3745-2.009 3.4892-4.8109 2.1675-2.802-1.3217-19.032-6.4498-16.812-7.6657 2.2204-1.2159-0.66802-4.2134 4.3351-2.6962l5.0031 1.5172" fill="#fafafa"/>
</g>
</g>
</svg>
